<svg xmlns="http://www.w3.org/2000/svg" xmlns:xlink="http://www.w3.org/1999/xlink" width="24" height="24" viewBox="0 0 24 24">
  <defs>
    <linearGradient id="linear-gradient" y1="0.5" x2="1" y2="0.5" gradientUnits="objectBoundingBox">
      <stop offset="0" stop-color="#fe867b"/>
      <stop offset="1" stop-color="#b6335f"/>
    </linearGradient>
  </defs>
  <path id="Forma_1" data-name="Forma 1" d="M165.485,815.515A12,12,0,1,0,169,824,11.922,11.922,0,0,0,165.485,815.515ZM157,834.594a10.569,10.569,0,0,1-7.9-3.54,8.44,8.44,0,0,1,7.9-5.46,4.219,4.219,0,1,1,4.219-4.219A4.219,4.219,0,0,1,157,825.594a8.44,8.44,0,0,1,7.9,5.46A10.569,10.569,0,0,1,157,834.594Z" transform="translate(-145 -812)" fill="url(#linear-gradient)"/>
</svg>
