<svg xmlns="http://www.w3.org/2000/svg" width="31" height="30" viewBox="0 0 31 30">
  <g id="Vector_Smart_Object" data-name="Vector Smart Object" transform="translate(-89.846 -7.471)">
    <g id="Group_255" data-name="Group 255">
      <path id="Path_290" data-name="Path 290" d="M116.191,37.471H94.5a1.245,1.245,0,1,1,0-2.489h21.69a1.245,1.245,0,1,1,0,2.489Z" fill="#dbe2e4"/>
      <g id="Group_254" data-name="Group 254">
        <g id="Group_252" data-name="Group 252">
          <g id="Group_248" data-name="Group 248">
            <g id="Group_241" data-name="Group 241">
              <g id="Group_236" data-name="Group 236">
                <path id="Path_291" data-name="Path 291" d="M97.457,28.647v6.9a.532.532,0,0,1-.106.318.543.543,0,0,1-.448.23H95.065a.552.552,0,0,1-.554-.548v-6.9a.552.552,0,0,1,.554-.548H96.9a.537.537,0,0,1,.339.118A.525.525,0,0,1,97.457,28.647Z" fill="#303043"/>
                <g id="Group_235" data-name="Group 235">
                  <g id="Group_233" data-name="Group 233">
                    <path id="Path_292" data-name="Path 292" d="M95.2,30.284a.25.25,0,0,1-.252.246H94.51v-.5h.438A.251.251,0,0,1,95.2,30.284Z" fill="#59597a"/>
                    <path id="Path_293" data-name="Path 293" d="M95.2,29.073a.252.252,0,0,1-.252.246H94.51v-.5h.438A.251.251,0,0,1,95.2,29.073Z" fill="#59597a"/>
                    <path id="Path_294" data-name="Path 294" d="M95.2,31.494a.25.25,0,0,1-.252.246H94.51v-.5h.438A.251.251,0,0,1,95.2,31.494Z" fill="#59597a"/>
                    <path id="Path_295" data-name="Path 295" d="M95.2,32.7a.25.25,0,0,1-.252.246H94.51v-.5h.438A.251.251,0,0,1,95.2,32.7Z" fill="#59597a"/>
                    <path id="Path_296" data-name="Path 296" d="M95.2,33.915a.25.25,0,0,1-.252.246H94.51v-.5h.438A.251.251,0,0,1,95.2,33.915Z" fill="#59597a"/>
                    <path id="Path_297" data-name="Path 297" d="M95.2,35.126a.25.25,0,0,1-.252.246H94.51v-.5h.438A.251.251,0,0,1,95.2,35.126Z" fill="#59597a"/>
                  </g>
                  <g id="Group_234" data-name="Group 234">
                    <path id="Path_298" data-name="Path 298" d="M96.766,33.912a.25.25,0,0,1,.252-.246h.438v.5h-.438A.251.251,0,0,1,96.766,33.912Z" fill="#59597a"/>
                    <path id="Path_299" data-name="Path 299" d="M96.766,35.122a.252.252,0,0,1,.252-.246h.438v.5h-.438A.251.251,0,0,1,96.766,35.122Z" fill="#59597a"/>
                    <path id="Path_300" data-name="Path 300" d="M96.766,32.7a.25.25,0,0,1,.252-.246h.438v.5h-.438A.251.251,0,0,1,96.766,32.7Z" fill="#59597a"/>
                    <path id="Path_301" data-name="Path 301" d="M96.766,31.491a.25.25,0,0,1,.252-.246h.438v.5h-.438A.251.251,0,0,1,96.766,31.491Z" fill="#59597a"/>
                    <path id="Path_302" data-name="Path 302" d="M96.766,30.281a.25.25,0,0,1,.252-.246h.438v.5h-.438A.251.251,0,0,1,96.766,30.281Z" fill="#59597a"/>
                    <path id="Path_303" data-name="Path 303" d="M96.766,29.07a.25.25,0,0,1,.252-.246h.438v.5h-.438A.251.251,0,0,1,96.766,29.07Z" fill="#59597a"/>
                  </g>
                </g>
              </g>
              <g id="Group_240" data-name="Group 240">
                <path id="Path_304" data-name="Path 304" d="M116.182,28.647v6.9a.531.531,0,0,1-.106.318.543.543,0,0,1-.448.23H113.79a.552.552,0,0,1-.554-.548v-6.9a.552.552,0,0,1,.554-.548h1.838a.537.537,0,0,1,.339.118A.525.525,0,0,1,116.182,28.647Z" fill="#303043"/>
                <g id="Group_239" data-name="Group 239">
                  <g id="Group_237" data-name="Group 237">
                    <path id="Path_305" data-name="Path 305" d="M113.925,30.284a.25.25,0,0,1-.252.246h-.438v-.5h.438A.251.251,0,0,1,113.925,30.284Z" fill="#59597a"/>
                    <path id="Path_306" data-name="Path 306" d="M113.925,29.073a.252.252,0,0,1-.252.246h-.438v-.5h.438A.251.251,0,0,1,113.925,29.073Z" fill="#59597a"/>
                    <path id="Path_307" data-name="Path 307" d="M113.925,31.494a.25.25,0,0,1-.252.246h-.438v-.5h.438A.251.251,0,0,1,113.925,31.494Z" fill="#59597a"/>
                    <path id="Path_308" data-name="Path 308" d="M113.925,32.7a.25.25,0,0,1-.252.246h-.438v-.5h.438A.251.251,0,0,1,113.925,32.7Z" fill="#59597a"/>
                    <path id="Path_309" data-name="Path 309" d="M113.925,33.915a.25.25,0,0,1-.252.246h-.438v-.5h.438A.251.251,0,0,1,113.925,33.915Z" fill="#59597a"/>
                    <path id="Path_310" data-name="Path 310" d="M113.925,35.126a.25.25,0,0,1-.252.246h-.438v-.5h.438A.251.251,0,0,1,113.925,35.126Z" fill="#59597a"/>
                  </g>
                  <g id="Group_238" data-name="Group 238">
                    <path id="Path_311" data-name="Path 311" d="M115.491,33.912a.25.25,0,0,1,.252-.246h.438v.5h-.438A.25.25,0,0,1,115.491,33.912Z" fill="#59597a"/>
                    <path id="Path_312" data-name="Path 312" d="M115.491,35.122a.252.252,0,0,1,.252-.246h.438v.5h-.438A.251.251,0,0,1,115.491,35.122Z" fill="#59597a"/>
                    <path id="Path_313" data-name="Path 313" d="M115.491,32.7a.25.25,0,0,1,.252-.246h.438v.5h-.438A.251.251,0,0,1,115.491,32.7Z" fill="#59597a"/>
                    <path id="Path_314" data-name="Path 314" d="M115.491,31.491a.25.25,0,0,1,.252-.246h.438v.5h-.438A.251.251,0,0,1,115.491,31.491Z" fill="#59597a"/>
                    <path id="Path_315" data-name="Path 315" d="M115.491,30.281a.25.25,0,0,1,.252-.246h.438v.5h-.438A.251.251,0,0,1,115.491,30.281Z" fill="#59597a"/>
                    <path id="Path_316" data-name="Path 316" d="M115.491,29.07a.25.25,0,0,1,.252-.246h.438v.5h-.438A.251.251,0,0,1,115.491,29.07Z" fill="#59597a"/>
                  </g>
                </g>
              </g>
            </g>
            <path id="Rectangle_243" data-name="Rectangle 243" d="M0,0H10.437a0,0,0,0,1,0,0V1.713A1.094,1.094,0,0,1,9.343,2.807H1.094A1.094,1.094,0,0,1,0,1.713V0A0,0,0,0,1,0,0Z" transform="matrix(-1, 0, 0, -1, 110.564, 10.278)" fill="#60a326"/>
            <path id="Path_317" data-name="Path 317" d="M115.934,8.275H94.758a2.026,2.026,0,0,0-2.037,2.016V31.442a2.026,2.026,0,0,0,2.037,2.016h21.177a2.026,2.026,0,0,0,2.037-2.016V10.291A2.026,2.026,0,0,0,115.934,8.275Z" fill="#81bc3f"/>
            <g id="Group_242" data-name="Group 242">
              <rect id="Rectangle_244" data-name="Rectangle 244" width="1.813" height="0.571" rx="0.277" transform="translate(94.136 27.559)" fill="#ff791e"/>
              <rect id="Rectangle_245" data-name="Rectangle 245" width="1.813" height="0.571" rx="0.277" transform="translate(114.744 27.559)" fill="#ff791e"/>
              <path id="Path_318" data-name="Path 318" d="M110.662,33.458a.788.788,0,0,0-.792-.783h-9.046a.788.788,0,0,0-.792.783Z" fill="#303043"/>
            </g>
            <g id="Group_245" data-name="Group 245">
              <rect id="Rectangle_246" data-name="Rectangle 246" width="0.578" height="3.825" transform="translate(96.531 25.817)" fill="#60a326"/>
              <path id="Path_319" data-name="Path 319" d="M110.746,25.817v3.819a.365.365,0,0,1-.367.363H100.314a.365.365,0,0,1-.367-.363V25.817h-.578v3.846a.912.912,0,0,0,.917.907h10.119a.912.912,0,0,0,.917-.907V25.817Z" fill="#60a326"/>
              <rect id="Rectangle_247" data-name="Rectangle 247" width="0.578" height="3.825" transform="translate(113.514 25.817)" fill="#60a326"/>
              <g id="Group_243" data-name="Group 243">
                <path id="Path_320" data-name="Path 320" d="M98.485,31.515H97.146a1.981,1.981,0,0,1-1.993-1.969h1.339A1.981,1.981,0,0,1,98.485,31.515Z" fill="#dbe2e4"/>
                <path id="Path_321" data-name="Path 321" d="M99.58,33.458h-.587L98.83,32.6a3.711,3.711,0,0,0-3.658-3H92.72v-.569h2.452A4.288,4.288,0,0,1,99.4,32.5Z" fill="#60a326"/>
              </g>
              <g id="Group_244" data-name="Group 244">
                <path id="Path_322" data-name="Path 322" d="M112.207,31.515h1.339a1.981,1.981,0,0,0,1.993-1.969H114.2A1.981,1.981,0,0,0,112.207,31.515Z" fill="#dbe2e4"/>
                <path id="Path_323" data-name="Path 323" d="M117.972,29.036V29.6H115.52a3.711,3.711,0,0,0-3.658,3l-.163.856h-.587l.183-.96a4.288,4.288,0,0,1,4.225-3.462Z" fill="#60a326"/>
              </g>
            </g>
            <rect id="Rectangle_248" data-name="Rectangle 248" width="25.251" height="13.867" transform="translate(92.72 11.95)" fill="#303043"/>
            <g id="Group_246" data-name="Group 246">
              <path id="Path_324" data-name="Path 324" d="M117.112,22.971H93.58a.214.214,0,0,1-.215-.212v2.209a.214.214,0,0,0,.215.212h23.532a.214.214,0,0,0,.215-.212V22.759A.214.214,0,0,1,117.112,22.971Z" fill="#444462"/>
              <rect id="Rectangle_249" data-name="Rectangle 249" width="23.962" height="10.384" rx="0.214" transform="translate(93.365 12.587)" fill="#575772"/>
            </g>
            <g id="Group_247" data-name="Group 247">
              <ellipse id="Ellipse_17" data-name="Ellipse 17" cx="0.806" cy="0.797" rx="0.806" ry="0.797" transform="translate(94.186 9.495)" fill="#486b2a"/>
              <ellipse id="Ellipse_18" data-name="Ellipse 18" cx="0.43" cy="0.425" rx="0.43" ry="0.425" transform="translate(94.562 9.866)" fill="#e82f32"/>
              <ellipse id="Ellipse_19" data-name="Ellipse 19" cx="0.806" cy="0.797" rx="0.806" ry="0.797" transform="translate(114.894 9.495)" fill="#486b2a"/>
              <path id="Path_325" data-name="Path 325" d="M115.7,10.716a.425.425,0,1,1,.43-.425A.428.428,0,0,1,115.7,10.716Z" fill="#e82f32"/>
            </g>
            <rect id="Rectangle_250" data-name="Rectangle 250" width="10.631" height="2.654" rx="0.427" transform="translate(100.03 8.843)" fill="#303043"/>
            <rect id="Rectangle_251" data-name="Rectangle 251" width="1.804" height="9.772" rx="0.214" transform="matrix(0, 1, -1, 0, 110.232, 9.268)" fill="#575772"/>
            <path id="Path_326" data-name="Path 326" d="M100.6,12.587l-7.236,9.27V20.122l5.88-7.535Z" fill="#6e6e8b"/>
            <path id="Path_327" data-name="Path 327" d="M117.327,18.049v1.738l-4.21,5.393h-1.356Z" fill="#6e6e8b"/>
            <path id="Path_328" data-name="Path 328" d="M108.881,12.587,99.051,25.18H96.61l9.828-12.593Z" fill="#6e6e8b"/>
          </g>
          <g id="Group_251" data-name="Group 251">
            <g id="Group_249" data-name="Group 249">
              <path id="Path_329" data-name="Path 329" d="M91.162,15.1h-.645V11.086a1.025,1.025,0,0,1,1.03-1.018h1.925v.637H91.547a.383.383,0,0,0-.385.381Z" fill="#81bc3f"/>
              <rect id="Rectangle_252" data-name="Rectangle 252" width="1.961" height="3.73" rx="0.285" transform="translate(89.846 11.497)" fill="#303043"/>
            </g>
            <g id="Group_250" data-name="Group 250">
              <path id="Path_330" data-name="Path 330" d="M119.53,15.1h.645V11.086a1.025,1.025,0,0,0-1.03-1.018H117.22v.637h1.925a.383.383,0,0,1,.385.381Z" fill="#81bc3f"/>
              <rect id="Rectangle_253" data-name="Rectangle 253" width="1.961" height="3.73" rx="0.285" transform="matrix(-1, 0, 0, -1, 120.846, 15.227)" fill="#303043"/>
            </g>
          </g>
        </g>
        <g id="Group_253" data-name="Group 253">
          <path id="Path_331" data-name="Path 331" d="M110.038,26.713h-9.385a.181.181,0,1,1,0-.363h9.385a.181.181,0,1,1,0,.363Z" fill="#303043"/>
          <path id="Path_332" data-name="Path 332" d="M110.038,27.647h-9.385a.181.181,0,1,1,0-.363h9.385a.181.181,0,1,1,0,.363Z" fill="#303043"/>
          <path id="Path_333" data-name="Path 333" d="M110.038,28.58h-9.385a.181.181,0,1,1,0-.363h9.385a.181.181,0,1,1,0,.363Z" fill="#303043"/>
          <path id="Path_334" data-name="Path 334" d="M110.038,29.514h-9.385a.181.181,0,1,1,0-.363h9.385a.181.181,0,1,1,0,.363Z" fill="#303043"/>
        </g>
      </g>
    </g>
  </g>
</svg>
