<svg xmlns="http://www.w3.org/2000/svg" xmlns:xlink="http://www.w3.org/1999/xlink" width="18" height="19" viewBox="0 0 18 19">
  <defs>
    <linearGradient id="linear-gradient" y1="0.5" x2="1" y2="0.5" gradientUnits="objectBoundingBox">
      <stop offset="0" stop-color="#fe867b"/>
      <stop offset="1" stop-color="#b6335f"/>
    </linearGradient>
  </defs>
  <path id="Forma_1" data-name="Forma 1" d="M208.65,709a1.687,1.687,0,0,1-1.65-1.714V693.817a1.687,1.687,0,0,1,1.6-1.7v2.3a1.848,1.848,0,0,0,1.822,1.876h1.15a1.858,1.858,0,0,0,1.834-1.876v-2.307h5.182v2.307a1.858,1.858,0,0,0,1.834,1.876h1.149a1.848,1.848,0,0,0,1.823-1.876v-2.3a1.687,1.687,0,0,1,1.6,1.7v13.469A1.688,1.688,0,0,1,223.35,709Zm.455-9.509v6.957a.724.724,0,0,0,.713.736h12.333a.724.724,0,0,0,.713-.736v-6.957a.725.725,0,0,0-.713-.737H209.818A.725.725,0,0,0,209.105,699.491Zm9.81,6.688a.424.424,0,0,1-.418-.43v-1.5a.424.424,0,0,1,.418-.431h1.458a.424.424,0,0,1,.418.431v1.5a.424.424,0,0,1-.418.43Zm-3.644,0a.424.424,0,0,1-.418-.43v-1.5a.424.424,0,0,1,.418-.431h1.458a.424.424,0,0,1,.418.431v1.5a.424.424,0,0,1-.418.43Zm-3.644,0a.424.424,0,0,1-.418-.43v-1.5a.424.424,0,0,1,.418-.431h1.458a.424.424,0,0,1,.418.431v1.5a.424.424,0,0,1-.418.43Zm7.288-3.76a.425.425,0,0,1-.418-.432v-1.5a.424.424,0,0,1,.418-.43h1.458a.424.424,0,0,1,.418.43v1.5a.425.425,0,0,1-.418.432Zm-3.644,0a.425.425,0,0,1-.418-.432v-1.5a.424.424,0,0,1,.418-.43h1.458a.424.424,0,0,1,.418.43v1.5a.425.425,0,0,1-.418.432Zm-3.644,0a.425.425,0,0,1-.418-.432v-1.5a.424.424,0,0,1,.418-.43h1.458a.424.424,0,0,1,.418.43v1.5a.425.425,0,0,1-.418.432Zm8.784-7.361a.635.635,0,0,1-.626-.644v-3.768a.635.635,0,0,1,.626-.644h1.137a.635.635,0,0,1,.626.644v3.768a.635.635,0,0,1-.626.644Zm-9.99,0a.635.635,0,0,1-.625-.644v-3.768a.635.635,0,0,1,.625-.644h1.138a.635.635,0,0,1,.625.644v3.768a.635.635,0,0,1-.625.644Z" transform="translate(-207 -690)" fill="url(#linear-gradient)"/>
</svg>
