<svg xmlns="http://www.w3.org/2000/svg" width="45" height="15" viewBox="0 0 45 15">
  <g id="Vector_Smart_Object" data-name="Vector Smart Object" transform="translate(-55.21 -122.514)">
    <g id="Group_107" data-name="Group 107">
      <rect id="Rectangle_63" data-name="Rectangle 63" width="1.845" height="7.93" transform="translate(62.701 122.514)" fill="#57cbea"/>
      <rect id="Rectangle_64" data-name="Rectangle 64" width="1.846" height="7.93" transform="translate(64.545 122.514)" fill="#1ba2d4"/>
      <rect id="Rectangle_65" data-name="Rectangle 65" width="3.691" height="1.275" transform="translate(62.701 124.554)" fill="#f42914"/>
      <rect id="Rectangle_66" data-name="Rectangle 66" width="1.845" height="7.93" transform="translate(74.218 122.514)" fill="#57cbea"/>
      <rect id="Rectangle_67" data-name="Rectangle 67" width="1.846" height="7.93" transform="translate(76.064 122.514)" fill="#1ba2d4"/>
      <rect id="Rectangle_68" data-name="Rectangle 68" width="3.691" height="1.275" transform="translate(74.219 124.554)" fill="#f42914"/>
      <rect id="Rectangle_69" data-name="Rectangle 69" width="1.845" height="7.93" transform="translate(85.736 122.514)" fill="#57cbea"/>
      <rect id="Rectangle_70" data-name="Rectangle 70" width="1.846" height="7.93" transform="translate(87.582 122.514)" fill="#1ba2d4"/>
      <rect id="Rectangle_71" data-name="Rectangle 71" width="3.691" height="1.275" transform="translate(85.737 124.554)" fill="#f42914"/>
      <path id="Path_227" data-name="Path 227" d="M59.328,132.328V129.4h8.527v-1.275H84.4v-1.546h6.364v5.1Z" fill="#5b6668"/>
      <path id="Path_228" data-name="Path 228" d="M100.21,128.72l-4.321,5.9H56.966a23.786,23.786,0,0,1-1.756-3.608Z" fill="#5ad6f2"/>
      <path id="Path_229" data-name="Path 229" d="M95.889,134.622l-2.117,2.892H60.3c-1.237,0-2.42-1.394-3.334-2.892Z" fill="#f42914"/>
      <g id="Group_105" data-name="Group 105">
        <rect id="Rectangle_72" data-name="Rectangle 72" width="0.891" height="0.892" transform="translate(60.855 131.671)" fill="#3f3f3f"/>
        <rect id="Rectangle_73" data-name="Rectangle 73" width="0.891" height="0.892" transform="translate(62.701 131.671)" fill="#3f3f3f"/>
        <rect id="Rectangle_74" data-name="Rectangle 74" width="0.891" height="0.892" transform="translate(64.546 131.671)" fill="#3f3f3f"/>
        <rect id="Rectangle_75" data-name="Rectangle 75" width="0.891" height="0.892" transform="translate(66.391 131.671)" fill="#3f3f3f"/>
        <rect id="Rectangle_76" data-name="Rectangle 76" width="0.891" height="0.892" transform="translate(68.237 131.671)" fill="#3f3f3f"/>
        <rect id="Rectangle_77" data-name="Rectangle 77" width="0.891" height="0.892" transform="translate(70.082 131.671)" fill="#3f3f3f"/>
        <rect id="Rectangle_78" data-name="Rectangle 78" width="0.891" height="0.892" transform="translate(71.928 131.671)" fill="#3f3f3f"/>
        <rect id="Rectangle_79" data-name="Rectangle 79" width="0.891" height="0.892" transform="translate(73.773 131.671)" fill="#3f3f3f"/>
        <rect id="Rectangle_80" data-name="Rectangle 80" width="0.891" height="0.892" transform="translate(75.619 131.671)" fill="#3f3f3f"/>
        <rect id="Rectangle_81" data-name="Rectangle 81" width="0.891" height="0.892" transform="translate(77.464 131.671)" fill="#3f3f3f"/>
        <rect id="Rectangle_82" data-name="Rectangle 82" width="0.891" height="0.892" transform="translate(79.309 131.671)" fill="#3f3f3f"/>
        <rect id="Rectangle_83" data-name="Rectangle 83" width="0.891" height="0.892" transform="translate(81.155 131.671)" fill="#3f3f3f"/>
        <rect id="Rectangle_84" data-name="Rectangle 84" width="0.891" height="0.892" transform="translate(83 131.671)" fill="#3f3f3f"/>
        <rect id="Rectangle_85" data-name="Rectangle 85" width="0.891" height="0.892" transform="translate(84.846 131.671)" fill="#3f3f3f"/>
        <rect id="Rectangle_86" data-name="Rectangle 86" width="0.891" height="0.892" transform="translate(86.691 131.671)" fill="#3f3f3f"/>
        <rect id="Rectangle_87" data-name="Rectangle 87" width="0.891" height="0.892" transform="translate(88.537 131.671)" fill="#3f3f3f"/>
        <rect id="Rectangle_88" data-name="Rectangle 88" width="0.891" height="0.892" transform="translate(90.382 131.671)" fill="#3f3f3f"/>
        <rect id="Rectangle_89" data-name="Rectangle 89" width="0.891" height="0.892" transform="translate(92.228 131.671)" fill="#3f3f3f"/>
      </g>
      <g id="Group_106" data-name="Group 106">
        <rect id="Rectangle_90" data-name="Rectangle 90" width="0.891" height="0.892" transform="translate(60.855 133.157)" fill="#3f3f3f"/>
        <rect id="Rectangle_91" data-name="Rectangle 91" width="0.891" height="0.892" transform="translate(62.701 133.157)" fill="#3f3f3f"/>
        <rect id="Rectangle_92" data-name="Rectangle 92" width="0.891" height="0.892" transform="translate(64.546 133.157)" fill="#3f3f3f"/>
        <rect id="Rectangle_93" data-name="Rectangle 93" width="0.891" height="0.892" transform="translate(66.391 133.157)" fill="#3f3f3f"/>
        <rect id="Rectangle_94" data-name="Rectangle 94" width="0.891" height="0.892" transform="translate(68.237 133.157)" fill="#3f3f3f"/>
        <rect id="Rectangle_95" data-name="Rectangle 95" width="0.891" height="0.892" transform="translate(70.082 133.157)" fill="#3f3f3f"/>
        <rect id="Rectangle_96" data-name="Rectangle 96" width="0.891" height="0.892" transform="translate(71.928 133.157)" fill="#3f3f3f"/>
        <rect id="Rectangle_97" data-name="Rectangle 97" width="0.891" height="0.892" transform="translate(73.773 133.157)" fill="#3f3f3f"/>
        <rect id="Rectangle_98" data-name="Rectangle 98" width="0.891" height="0.892" transform="translate(75.619 133.157)" fill="#3f3f3f"/>
        <rect id="Rectangle_99" data-name="Rectangle 99" width="0.891" height="0.892" transform="translate(77.464 133.157)" fill="#3f3f3f"/>
        <rect id="Rectangle_100" data-name="Rectangle 100" width="0.891" height="0.892" transform="translate(79.309 133.157)" fill="#3f3f3f"/>
        <rect id="Rectangle_101" data-name="Rectangle 101" width="0.891" height="0.892" transform="translate(81.155 133.157)" fill="#3f3f3f"/>
        <rect id="Rectangle_102" data-name="Rectangle 102" width="0.891" height="0.892" transform="translate(83 133.157)" fill="#3f3f3f"/>
        <rect id="Rectangle_103" data-name="Rectangle 103" width="0.891" height="0.892" transform="translate(84.846 133.157)" fill="#3f3f3f"/>
        <rect id="Rectangle_104" data-name="Rectangle 104" width="0.891" height="0.892" transform="translate(86.691 133.157)" fill="#3f3f3f"/>
        <rect id="Rectangle_105" data-name="Rectangle 105" width="0.891" height="0.892" transform="translate(88.537 133.157)" fill="#3f3f3f"/>
        <rect id="Rectangle_106" data-name="Rectangle 106" width="0.891" height="0.892" transform="translate(90.382 133.157)" fill="#3f3f3f"/>
        <rect id="Rectangle_107" data-name="Rectangle 107" width="0.891" height="0.892" transform="translate(92.228 133.157)" fill="#3f3f3f"/>
      </g>
      <rect id="Rectangle_108" data-name="Rectangle 108" width="7.789" height="0.508" transform="translate(69.128 128.72)" fill="#3c4344"/>
      <rect id="Rectangle_109" data-name="Rectangle 109" width="3.284" height="0.508" transform="translate(85.939 127.317)" fill="#3c4344"/>
    </g>
  </g>
</svg>
