<svg xmlns="http://www.w3.org/2000/svg" width="43" height="25" viewBox="0 0 43 25">
  <g id="Vector_Smart_Object" data-name="Vector Smart Object" transform="translate(-164.693 -175.691)">
    <g id="Group_258" data-name="Group 258">
      <path id="Path_349" data-name="Path 349" d="M194.443,197.3l-2.132-2.006-.6.088,2.811,2.425Z" fill="#1a2a3a" fill-rule="evenodd"/>
      <rect id="Rectangle_254" data-name="Rectangle 254" width="0.752" height="3.939" transform="translate(194.443 194.525)" fill="#1a2a3a"/>
      <path id="Path_350" data-name="Path 350" d="M191.636,192.556l15.1-.336c1.223-.089,1.195.954.342,1.123l-15.612,2.168Z" fill="#85bfe9" fill-rule="evenodd"/>
      <path id="Path_351" data-name="Path 351" d="M177.943,197.3l2.131-2.006.6.088-2.811,2.425Z" fill="#1a2a3a" fill-rule="evenodd"/>
      <rect id="Rectangle_255" data-name="Rectangle 255" width="0.752" height="3.939" transform="translate(177.191 194.525)" fill="#1a2a3a"/>
      <path id="Path_352" data-name="Path 352" d="M180.75,192.556l-15.1-.336c-1.224-.089-1.2.954-.342,1.123l15.612,2.168Z" fill="#aad3ef" fill-rule="evenodd"/>
      <path id="Path_353" data-name="Path 353" d="M185.3,185.772l.665-9.794a.312.312,0,0,1,.228-.287v10.137Z" fill="#5492bf" fill-rule="evenodd"/>
      <path id="Path_354" data-name="Path 354" d="M181.547,189.667l-10.952-1.4a.245.245,0,0,0-.1.479l10.851,2.393.6-.313Z" fill="#5492bf" fill-rule="evenodd"/>
      <path id="Path_355" data-name="Path 355" d="M186.193,197.052c-2.068.1-3.832-.161-4.828-1.316h-.615v-3.313a.474.474,0,0,0,.63-.35Z" fill="#5492bf" fill-rule="evenodd"/>
      <rect id="Rectangle_256" data-name="Rectangle 256" width="0.529" height="0.396" transform="translate(177.302 198.464)" fill="#1a2a3a"/>
      <rect id="Rectangle_257" data-name="Rectangle 257" width="0.325" height="0.354" transform="translate(177.404 198.86)" fill="#1a2a3a"/>
      <rect id="Rectangle_258" data-name="Rectangle 258" width="1.102" height="1.058" transform="translate(177.05 199.155)" fill="#1a2a3a"/>
      <rect id="Rectangle_259" data-name="Rectangle 259" width="0.735" height="2.116" rx="0.355" transform="translate(176.314 198.575)" fill="#1a2a3a"/>
      <path id="Rectangle_260" data-name="Rectangle 260" d="M.356,0H.38A.355.355,0,0,1,.735.355V1.761a.355.355,0,0,1-.355.355H.356A.356.356,0,0,1,0,1.76V.356A.356.356,0,0,1,.356,0Z" transform="translate(178.151 198.575)" fill="#1a2a3a"/>
      <path id="Path_356" data-name="Path 356" d="M171.112,193.343a2.824,2.824,0,1,1-2.615,2.816A2.721,2.721,0,0,1,171.112,193.343Z" fill="#5492bf" fill-rule="evenodd"/>
      <path id="Path_357" data-name="Path 357" d="M171.112,194.042a2.123,2.123,0,1,1-1.966,2.117A2.045,2.045,0,0,1,171.112,194.042Z" fill="#1a2a3a" fill-rule="evenodd"/>
      <path id="Path_358" data-name="Path 358" d="M186.193,185.6c2.679,0,4.852,2.563,4.852,5.724s-2.173,5.724-4.852,5.724-4.853-2.563-4.853-5.724S183.512,185.6,186.193,185.6Z" fill="#d0e6f5" fill-rule="evenodd"/>
      <path id="Path_359" data-name="Path 359" d="M186.193,189.588c-.967-.116-2.43.86-2.982.8a.549.549,0,0,1-.445-.727l.381-.754c.4-.684,2.512-.771,3.046-.75Z" fill="#67a4cf" fill-rule="evenodd"/>
      <path id="Path_360" data-name="Path 360" d="M187.085,185.772l-.665-9.794a.311.311,0,0,0-.227-.287v10.137Z" fill="#4681ab" fill-rule="evenodd"/>
      <path id="Path_361" data-name="Path 361" d="M190.838,189.667l10.952-1.4a.245.245,0,0,1,.1.479l-10.85,2.393-.6-.313Z" fill="#4681ab" fill-rule="evenodd"/>
      <path id="Path_362" data-name="Path 362" d="M186.193,197.052c2.067.1,3.832-.161,4.828-1.316h.615v-3.313a.474.474,0,0,1-.63-.35Z" fill="#4681ab" fill-rule="evenodd"/>
      <rect id="Rectangle_261" data-name="Rectangle 261" width="0.53" height="0.396" transform="translate(194.553 198.464)" fill="#1a2a3a"/>
      <rect id="Rectangle_262" data-name="Rectangle 262" width="0.325" height="0.354" transform="translate(194.656 198.86)" fill="#1a2a3a"/>
      <rect id="Rectangle_263" data-name="Rectangle 263" width="1.102" height="1.058" transform="translate(194.233 199.155)" fill="#1a2a3a"/>
      <rect id="Rectangle_264" data-name="Rectangle 264" width="0.735" height="2.116" rx="0.355" transform="translate(195.335 198.575)" fill="#1a2a3a"/>
      <rect id="Rectangle_265" data-name="Rectangle 265" width="0.735" height="2.116" rx="0.355" transform="translate(193.498 198.575)" fill="#1a2a3a"/>
      <path id="Path_363" data-name="Path 363" d="M201.274,193.343a2.824,2.824,0,1,0,2.615,2.816A2.721,2.721,0,0,0,201.274,193.343Z" fill="#4681ab" fill-rule="evenodd"/>
      <path id="Path_364" data-name="Path 364" d="M201.274,194.042a2.123,2.123,0,1,0,1.965,2.117A2.045,2.045,0,0,0,201.274,194.042Z" fill="#1a2a3a" fill-rule="evenodd"/>
      <path id="Path_365" data-name="Path 365" d="M186.193,197.052c2.679,0,4.852-2.563,4.852-5.724s-2.173-5.724-4.852-5.724Z" fill="#aad3ef" fill-rule="evenodd"/>
      <path id="Path_366" data-name="Path 366" d="M186.193,189.588c.968-.116,2.43.86,2.981.8a.548.548,0,0,0,.445-.727l-.381-.754c-.4-.684-2.512-.771-3.045-.75Z" fill="#4681ab" fill-rule="evenodd"/>
      <path id="Path_367" data-name="Path 367" d="M186.193,190.021a2.042,2.042,0,1,0,1.918,2.038A1.981,1.981,0,0,0,186.193,190.021Z" fill="#85bfe9" fill-rule="evenodd"/>
      <path id="Path_368" data-name="Path 368" d="M186.193,190.021a2.042,2.042,0,0,0,0,4.077Z" fill="#e4eef5" fill-rule="evenodd"/>
    </g>
  </g>
</svg>
