<svg xmlns="http://www.w3.org/2000/svg" width="31" height="28" viewBox="0 0 31 28">
  <g id="Vector_Smart_Object" data-name="Vector Smart Object" transform="translate(-24.425 -159.467)">
    <g id="Group_257" data-name="Group 257">
      <path id="Path_335" data-name="Path 335" d="M45.8,164.574l.974.453-3.619,7.7-.973-.453Z" fill="#d80005"/>
      <path id="Path_336" data-name="Path 336" d="M37.221,160.576l10.95-.3L39.5,161.6l-.02.007c-.115-.258-.4-.383-.624-.515a7.359,7.359,0,0,0-1.59-.509Zm9.056,4.173a1.843,1.843,0,0,0-.782-.726l-.336-.157a1.987,1.987,0,0,0-.788-.155l3.8-3.032Zm-2.256-1.014a8.4,8.4,0,0,0-1.046-.708c-.124-.069-.253-.128-.379-.192l-.357-.128,5.66-2.068Zm-2.273-1.058a8.394,8.394,0,0,0-1.048-.71c-.124-.068-.253-.128-.379-.192l-.184-.066,7.325-1.123-5.7,2.082Z" fill="#16b200"/>
      <path id="Path_337" data-name="Path 337" d="M55.425,169.055a1.374,1.374,0,0,0-.635-.541,7.26,7.26,0,0,0-1.527-.495l0-.01-4.406-7.2,6.355,7.969a.622.622,0,0,1,.189.21Zm-4.435-2.1-2.1-5.7,3.89,6.354-.264-.155a7.247,7.247,0,0,0-1.451-.478ZM48.722,165.9l-.16-4.95,2.108,5.72c-.186-.165-.055-.058-.423-.274a7.3,7.3,0,0,0-1.457-.482Zm-.207-.184a2.02,2.02,0,0,0-.728-.628l-.342-.159a2.463,2.463,0,0,0-.693-.167,2.255,2.255,0,0,0-.263.009l1.867-4.013Z" fill="#16b200"/>
      <path id="Path_338" data-name="Path 338" d="M48.2,159.467l.974.453-.472,1.007-.974-.453Z" fill="#d80005"/>
      <g id="Group_256" data-name="Group 256">
        <path id="Path_339" data-name="Path 339" d="M30.772,172.45a5.021,5.021,0,1,1,3.564-6.147A5.043,5.043,0,0,1,30.772,172.45Zm-.2-.746a4.249,4.249,0,1,0-5.224-3A4.245,4.245,0,0,0,30.571,171.7Z" fill="#ffcd00"/>
        <path id="Path_340" data-name="Path 340" d="M30.053,171.434l-.043.009a3.887,3.887,0,0,1-1.518-.057c-.241-.057-.47-.161-.7-.242l-.016-.01,1.5-2.595Zm-2.894-.65-.016-.01a3.855,3.855,0,0,1-1.027-1.08c-.137-.217-.23-.458-.345-.688l-.013-.042,2.906-.776Z" fill="#ffcd00"/>
        <path id="Path_341" data-name="Path 341" d="M25.656,168.651a.219.219,0,0,1-.011-.043Z" fill="#ffcd00"/>
        <path id="Path_342" data-name="Path 342" d="M28.834,166.9l-2.606-1.5.009-.017a3.863,3.863,0,0,1,1.085-1.022c.218-.136.461-.229.691-.343l.042-.014Zm-3.259,1.383-.009-.043a3.836,3.836,0,0,1,.057-1.511c.058-.241.162-.468.243-.7l.01-.016,2.606,1.5Z" fill="#ffcd00"/>
        <path id="Path_343" data-name="Path 343" d="M30.125,167.072l1.5-2.58-.029-.021.006-.011.031.018-.008.014a2.608,2.608,0,0,1,.588.482,3.846,3.846,0,0,1,.809,1.281l.013.042Zm-.611-.351-.778-2.894.043-.009c.257-.015.513-.056.77-.047a3.568,3.568,0,0,1,1.1.206,3.2,3.2,0,0,1,.361.164Z" fill="#ffcd00"/>
      </g>
      <path id="Path_344" data-name="Path 344" d="M35.294,171.358H45.8l-5.253,4.755Z" fill="#bc4449"/>
      <path id="Path_345" data-name="Path 345" d="M34.241,167.629v0Z" fill="#464646"/>
      <path id="Path_346" data-name="Path 346" d="M32.542,163.992l-.035-.028.015-.014.03.029Z" fill="#464646"/>
      <path id="Path_347" data-name="Path 347" d="M29.44,162.848a.266.266,0,0,1,.054,0Z" fill="#464646"/>
      <path id="Path_348" data-name="Path 348" d="M33.956,187.467a.285.285,0,0,1-.113-.548l5.748-2.452v-6.975l-9.841-8.908-.078-.086a1.47,1.47,0,0,1-.1-.221.607.607,0,0,1,.224-.576,1.4,1.4,0,0,1,.222-.1l.115-.011H51.148a.57.57,0,0,1,.385.993L41.5,177.664v6.721l5.939,2.534a.285.285,0,0,1-.113.548Zm6.382-10.842h.607l8.72-7.894H31.618Z" fill="#007db2"/>
    </g>
  </g>
</svg>
