<svg xmlns="http://www.w3.org/2000/svg" width="26.008" height="21.006" viewBox="0 0 26.008 21.006">
  <path id="Forma_1" data-name="Forma 1" d="M36.065,922v-6.287h-4.13V922H25.741a.987.987,0,0,1-.726-.311,1.015,1.015,0,0,1-.306-.737V913.1a.222.222,0,0,1,.008-.049.22.22,0,0,0,.008-.049L34,905.237,43.276,913a.23.23,0,0,1,.016.1v7.859a1.011,1.011,0,0,1-.307.737.984.984,0,0,1-.725.311ZM22.45,913.359a.549.549,0,0,1-.338-.181l-1-1.211a.538.538,0,0,1-.113-.384.477.477,0,0,1,.177-.352l11.6-9.807a1.978,1.978,0,0,1,2.452,0l3.936,3.34V901.57a.516.516,0,0,1,.145-.376.5.5,0,0,1,.372-.148h3.1a.5.5,0,0,1,.371.148.513.513,0,0,1,.146.376v6.681l3.533,2.98a.475.475,0,0,1,.177.351.531.531,0,0,1-.112.385l-1,1.211a.547.547,0,0,1-.338.18H45.5a.492.492,0,0,1-.339-.114L34,903.8l-11.164,9.447a.605.605,0,0,1-.344.117Z" transform="translate(-20.996 -900.997)" fill="#123f92"/>
</svg>
