<svg xmlns="http://www.w3.org/2000/svg" xmlns:xlink="http://www.w3.org/1999/xlink" width="30" height="34.518" viewBox="0 0 30 34.518">
  <defs>
    <clipPath id="clip-path">
      <rect id="Rectangle_125" data-name="Rectangle 125" width="4.946" height="2.232" transform="matrix(0, 1, -1, 0, 33.896, 32)" fill="none"/>
    </clipPath>
    <clipPath id="clip-path-2">
      <rect id="Rectangle_130" data-name="Rectangle 130" width="4.946" height="2.232" transform="matrix(0, 1, -1, 0, 33.896, 22.359)" fill="none"/>
    </clipPath>
    <clipPath id="clip-path-3">
      <rect id="Rectangle_146" data-name="Rectangle 146" width="4.946" height="2.232" transform="matrix(0, 1, -1, 0, 14.673, 32.047)" fill="none"/>
    </clipPath>
    <clipPath id="clip-path-4">
      <rect id="Rectangle_151" data-name="Rectangle 151" width="4.946" height="2.232" transform="matrix(0, 1, -1, 0, 14.673, 22.406)" fill="none"/>
    </clipPath>
    <clipPath id="clip-path-5">
      <rect id="Rectangle_185" data-name="Rectangle 185" width="2.32" height="2.354" transform="translate(26.045 16.771)" fill="none"/>
    </clipPath>
    <clipPath id="clip-path-6">
      <rect id="Rectangle_190" data-name="Rectangle 190" width="2.32" height="2.354" transform="translate(22.025 16.771)" fill="none"/>
    </clipPath>
    <clipPath id="clip-path-7">
      <rect id="Rectangle_195" data-name="Rectangle 195" width="2.32" height="2.354" transform="translate(18.053 16.771)" fill="none"/>
    </clipPath>
    <clipPath id="clip-path-8">
      <rect id="Rectangle_200" data-name="Rectangle 200" width="2.32" height="2.354" transform="translate(26.045 21.014)" fill="none"/>
    </clipPath>
    <clipPath id="clip-path-9">
      <rect id="Rectangle_205" data-name="Rectangle 205" width="2.32" height="2.354" transform="translate(22.025 21.014)" fill="none"/>
    </clipPath>
    <clipPath id="clip-path-10">
      <rect id="Rectangle_210" data-name="Rectangle 210" width="2.32" height="2.354" transform="translate(18.053 21.014)" fill="none"/>
    </clipPath>
    <clipPath id="clip-path-11">
      <rect id="Rectangle_215" data-name="Rectangle 215" width="2.32" height="2.354" transform="translate(26.045 25.007)" fill="none"/>
    </clipPath>
    <clipPath id="clip-path-12">
      <rect id="Rectangle_220" data-name="Rectangle 220" width="2.32" height="2.354" transform="translate(22.025 25.007)" fill="none"/>
    </clipPath>
    <clipPath id="clip-path-13">
      <rect id="Rectangle_225" data-name="Rectangle 225" width="2.32" height="2.354" transform="translate(18.053 25.007)" fill="none"/>
    </clipPath>
    <clipPath id="clip-path-14">
      <rect id="Rectangle_232" data-name="Rectangle 232" width="5.284" height="6.219" transform="matrix(0, 1, -1, 0, 26.433, 33.138)" fill="none"/>
    </clipPath>
  </defs>
  <g id="Vector_Smart_Object" data-name="Vector Smart Object" transform="translate(-8.047 -5.178)">
    <g id="OBJECTS">
      <g id="Group_110" data-name="Group 110">
        <g id="Group_109" data-name="Group 109">
          <g id="Group_108" data-name="Group 108">
            <path id="Path_230" data-name="Path 230" d="M18.76,5.178l.294.605.658.1-.476.471.112.665L18.76,6.7l-.589.314.112-.665-.476-.471.658-.1Z" fill="#ffdc6f"/>
            <path id="Path_231" data-name="Path 231" d="M20.922,5.178l.294.605.658.1-.476.471.112.665L20.922,6.7l-.589.314.112-.665-.476-.471.658-.1Z" fill="#ffdc6f"/>
            <path id="Path_232" data-name="Path 232" d="M23.083,5.178l.294.605.658.1-.476.471.112.665L23.083,6.7l-.589.314.112-.665-.476-.471.658-.1Z" fill="#ffdc6f"/>
            <path id="Path_233" data-name="Path 233" d="M27.334,5.178l.294.605.658.1-.476.471.112.665L27.334,6.7l-.589.314.112-.665-.476-.471.658-.1Z" fill="#ffdc6f"/>
            <path id="Path_234" data-name="Path 234" d="M25.209,5.178l.294.605.658.1-.476.471.112.665L25.209,6.7l-.589.314.112-.665-.476-.471.658-.1Z" fill="#ffdc6f"/>
          </g>
        </g>
        <text id="HOTEL" transform="translate(16.771 10.439)" fill="#165cc1" font-size="4" font-family="Montserrat-Regular, Montserrat"><tspan x="0" y="0">HOTEL</tspan></text>
      </g>
      <g id="Group_224" data-name="Group 224">
        <g id="Group_131" data-name="Group 131">
          <g id="Group_111" data-name="Group 111">
            <rect id="Rectangle_110" data-name="Rectangle 110" width="6.255" height="18.22" transform="matrix(-1, 0, 0, -1, 35.865, 38.655)" fill="#ff867b"/>
            <path id="Path_235" data-name="Path 235" d="M29.61,20.436v18.22h6.255v-.134L29.913,20.436Z" fill="#1a2029" opacity="0.1"/>
          </g>
          <g id="Group_114" data-name="Group 114" opacity="0.58">
            <g id="Group_112" data-name="Group 112">
              <rect id="Rectangle_111" data-name="Rectangle 111" width="0.538" height="0.303" rx="0.106" transform="matrix(-1, 0, 0, -1, 35.337, 31.618)" fill="#ef4d61"/>
              <rect id="Rectangle_112" data-name="Rectangle 112" width="0.538" height="0.303" rx="0.106" transform="matrix(-1, 0, 0, -1, 34.964, 31.98)" fill="#ef4d61"/>
              <rect id="Rectangle_113" data-name="Rectangle 113" width="0.538" height="0.303" rx="0.106" transform="matrix(-1, 0, 0, -1, 34.728, 31.618)" fill="#ef4d61"/>
            </g>
            <g id="Group_113" data-name="Group 113">
              <rect id="Rectangle_114" data-name="Rectangle 114" width="0.538" height="0.303" rx="0.106" transform="matrix(-1, 0, 0, -1, 31.37, 21.88)" fill="#ef4d61"/>
              <rect id="Rectangle_115" data-name="Rectangle 115" width="0.538" height="0.303" rx="0.106" transform="matrix(-1, 0, 0, -1, 30.997, 22.241)" fill="#ef4d61"/>
              <rect id="Rectangle_116" data-name="Rectangle 116" width="0.538" height="0.303" rx="0.106" transform="matrix(-1, 0, 0, -1, 30.761, 21.88)" fill="#ef4d61"/>
            </g>
          </g>
          <g id="Group_117" data-name="Group 117">
            <g id="Group_115" data-name="Group 115">
              <rect id="Rectangle_117" data-name="Rectangle 117" width="6.34" height="0.593" transform="matrix(-1, 0, 0, -1, 35.95, 20.708)" fill="#ef4d61"/>
              <path id="Path_236" data-name="Path 236" d="M29.61,20.115h6.34l-1.112-3.421H29.909Z" fill="#f27c96"/>
              <rect id="Rectangle_118" data-name="Rectangle 118" width="6.255" height="0.228" transform="matrix(-1, 0, 0, -1, 35.865, 21.147)" fill="#ef4d61"/>
            </g>
            <g id="Group_116" data-name="Group 116">
              <rect id="Rectangle_119" data-name="Rectangle 119" width="6.255" height="1.42" transform="matrix(-1, 0, 0, -1, 35.865, 30.223)" fill="#ef4d61"/>
              <rect id="Rectangle_120" data-name="Rectangle 120" width="6.255" height="0.228" transform="matrix(-1, 0, 0, -1, 35.865, 30.601)" fill="#ef4d61"/>
            </g>
          </g>
          <g id="Group_130" data-name="Group 130">
            <g id="Group_123" data-name="Group 123">
              <g id="Group_122" data-name="Group 122">
                <g id="Group_121" data-name="Group 121">
                  <g id="Group_118" data-name="Group 118">
                    <rect id="Rectangle_121" data-name="Rectangle 121" width="4.946" height="2.232" transform="matrix(0, 1, -1, 0, 33.896, 32)" fill="#badbed"/>
                    <path id="Path_237" data-name="Path 237" d="M33.9,36.74v.206H31.664V32h.764a3.729,3.729,0,0,0-.463,1.851C31.965,35.416,32.824,36.69,33.9,36.74Z" fill="#1a2029" opacity="0.13"/>
                  </g>
                  <g id="Group_120" data-name="Group 120">
                    <g id="Group_119" data-name="Group 119" clip-path="url(#clip-path)">
                      <rect id="Rectangle_122" data-name="Rectangle 122" width="0.675" height="8.005" transform="translate(30.106 37.598) rotate(-132.616)" fill="#fff" opacity="0.35"/>
                      <rect id="Rectangle_123" data-name="Rectangle 123" width="0.338" height="8.005" transform="translate(34.865 31.023) rotate(47.384)" fill="#fff" opacity="0.35"/>
                      <rect id="Rectangle_124" data-name="Rectangle 124" width="0.243" height="8.005" transform="translate(36.255 32.852) rotate(47.384)" fill="#fff" opacity="0.35"/>
                    </g>
                  </g>
                </g>
                <path id="Path_238" data-name="Path 238" d="M33.9,32v.216H31.86v4.73h-.2V32Z" fill="#1a2029" opacity="0.21"/>
              </g>
              <path id="Path_239" data-name="Path 239" d="M31.37,31.7v5.541H34.19V31.7ZM33.9,36.945H31.664V33.817H33.9Zm0-3.427H31.664V32H33.9Z" fill="#fff"/>
            </g>
            <g id="Group_129" data-name="Group 129">
              <g id="Group_128" data-name="Group 128">
                <g id="Group_127" data-name="Group 127">
                  <g id="Group_124" data-name="Group 124">
                    <rect id="Rectangle_126" data-name="Rectangle 126" width="4.946" height="2.232" transform="matrix(0, 1, -1, 0, 33.896, 22.359)" fill="#badbed"/>
                    <path id="Path_240" data-name="Path 240" d="M33.9,27.1v.206H31.664V22.359h.764a3.729,3.729,0,0,0-.463,1.851C31.965,25.776,32.824,27.05,33.9,27.1Z" fill="#1a2029" opacity="0.13"/>
                  </g>
                  <g id="Group_126" data-name="Group 126">
                    <g id="Group_125" data-name="Group 125" clip-path="url(#clip-path-2)">
                      <rect id="Rectangle_127" data-name="Rectangle 127" width="0.675" height="8.005" transform="translate(30.106 27.958) rotate(-132.616)" fill="#fff" opacity="0.35"/>
                      <rect id="Rectangle_128" data-name="Rectangle 128" width="0.338" height="8.005" transform="translate(34.865 21.383) rotate(47.384)" fill="#fff" opacity="0.35"/>
                      <rect id="Rectangle_129" data-name="Rectangle 129" width="0.243" height="8.005" transform="translate(36.255 23.212) rotate(47.384)" fill="#fff" opacity="0.35"/>
                    </g>
                  </g>
                </g>
                <path id="Path_241" data-name="Path 241" d="M33.9,22.359v.216H31.86v4.73h-.2V22.359Z" fill="#1a2029" opacity="0.21"/>
              </g>
              <path id="Path_242" data-name="Path 242" d="M31.37,22.062V27.6H34.19V22.062ZM33.9,27.3H31.664V24.176H33.9Zm0-3.427H31.664V22.36H33.9Z" fill="#fff"/>
            </g>
          </g>
        </g>
        <g id="Group_152" data-name="Group 152">
          <g id="Group_132" data-name="Group 132">
            <rect id="Rectangle_131" data-name="Rectangle 131" width="6.255" height="18.22" transform="translate(10.472 20.483)" fill="#ff867b"/>
            <path id="Path_243" data-name="Path 243" d="M16.727,20.482V38.7H10.472v-.134l5.952-18.086Z" fill="#1a2029" opacity="0.07"/>
          </g>
          <g id="Group_135" data-name="Group 135" opacity="0.58">
            <g id="Group_133" data-name="Group 133">
              <rect id="Rectangle_132" data-name="Rectangle 132" width="0.538" height="0.303" rx="0.106" transform="translate(11 31.362)" fill="#ef4d61"/>
              <rect id="Rectangle_133" data-name="Rectangle 133" width="0.538" height="0.303" rx="0.106" transform="translate(11.373 31.723)" fill="#ef4d61"/>
              <rect id="Rectangle_134" data-name="Rectangle 134" width="0.538" height="0.303" rx="0.106" transform="translate(11.609 31.362)" fill="#ef4d61"/>
            </g>
            <g id="Group_134" data-name="Group 134">
              <rect id="Rectangle_135" data-name="Rectangle 135" width="0.538" height="0.303" rx="0.106" transform="translate(14.967 21.623)" fill="#ef4d61"/>
              <rect id="Rectangle_136" data-name="Rectangle 136" width="0.538" height="0.303" rx="0.106" transform="translate(15.34 21.985)" fill="#ef4d61"/>
              <rect id="Rectangle_137" data-name="Rectangle 137" width="0.538" height="0.303" rx="0.106" transform="translate(15.576 21.623)" fill="#ef4d61"/>
            </g>
          </g>
          <g id="Group_138" data-name="Group 138">
            <g id="Group_136" data-name="Group 136">
              <rect id="Rectangle_138" data-name="Rectangle 138" width="6.34" height="0.593" transform="translate(10.387 20.162)" fill="#ef4d61"/>
              <path id="Path_244" data-name="Path 244" d="M16.727,20.162h-6.34L11.5,16.74h4.929Z" fill="#f27c96"/>
              <rect id="Rectangle_139" data-name="Rectangle 139" width="6.255" height="0.228" transform="translate(10.472 20.967)" fill="#ef4d61"/>
            </g>
            <g id="Group_137" data-name="Group 137">
              <rect id="Rectangle_140" data-name="Rectangle 140" width="6.255" height="1.42" transform="translate(10.472 28.85)" fill="#ef4d61"/>
              <rect id="Rectangle_141" data-name="Rectangle 141" width="6.255" height="0.228" transform="translate(10.472 30.421)" fill="#ef4d61"/>
            </g>
          </g>
          <g id="Group_151" data-name="Group 151">
            <g id="Group_144" data-name="Group 144">
              <g id="Group_143" data-name="Group 143">
                <g id="Group_142" data-name="Group 142">
                  <g id="Group_139" data-name="Group 139">
                    <rect id="Rectangle_142" data-name="Rectangle 142" width="4.946" height="2.232" transform="matrix(0, 1, -1, 0, 14.673, 32.047)" fill="#badbed"/>
                    <path id="Path_245" data-name="Path 245" d="M14.673,36.787v.206H12.441V32.046h.764a3.729,3.729,0,0,0-.463,1.851C12.742,35.463,13.6,36.737,14.673,36.787Z" fill="#1a2029" opacity="0.13"/>
                  </g>
                  <g id="Group_141" data-name="Group 141">
                    <g id="Group_140" data-name="Group 140" clip-path="url(#clip-path-3)">
                      <rect id="Rectangle_143" data-name="Rectangle 143" width="0.675" height="8.005" transform="translate(10.883 37.645) rotate(-132.616)" fill="#fff" opacity="0.35"/>
                      <rect id="Rectangle_144" data-name="Rectangle 144" width="0.338" height="8.005" transform="translate(15.642 31.07) rotate(47.384)" fill="#fff" opacity="0.35"/>
                      <rect id="Rectangle_145" data-name="Rectangle 145" width="0.243" height="8.005" transform="translate(17.032 32.899) rotate(47.384)" fill="#fff" opacity="0.35"/>
                    </g>
                  </g>
                </g>
                <path id="Path_246" data-name="Path 246" d="M14.673,32.047v.216H12.637v4.73h-.2V32.047Z" fill="#1a2029" opacity="0.21"/>
              </g>
              <path id="Path_247" data-name="Path 247" d="M12.147,31.749V37.29h2.819V31.749Zm2.526,5.243H12.441V33.864h2.232Zm0-3.427H12.441V32.047h2.232Z" fill="#fff"/>
            </g>
            <g id="Group_150" data-name="Group 150">
              <g id="Group_149" data-name="Group 149">
                <g id="Group_148" data-name="Group 148">
                  <g id="Group_145" data-name="Group 145">
                    <rect id="Rectangle_147" data-name="Rectangle 147" width="4.946" height="2.232" transform="matrix(0, 1, -1, 0, 14.673, 22.406)" fill="#badbed"/>
                    <path id="Path_248" data-name="Path 248" d="M14.673,27.147v.206H12.441V22.406h.764a3.729,3.729,0,0,0-.463,1.851C12.742,25.823,13.6,27.1,14.673,27.147Z" fill="#1a2029" opacity="0.13"/>
                  </g>
                  <g id="Group_147" data-name="Group 147">
                    <g id="Group_146" data-name="Group 146" clip-path="url(#clip-path-4)">
                      <rect id="Rectangle_148" data-name="Rectangle 148" width="0.675" height="8.005" transform="translate(10.883 28.005) rotate(-132.616)" fill="#fff" opacity="0.35"/>
                      <rect id="Rectangle_149" data-name="Rectangle 149" width="0.338" height="8.005" transform="translate(15.642 21.43) rotate(47.384)" fill="#fff" opacity="0.35"/>
                      <rect id="Rectangle_150" data-name="Rectangle 150" width="0.243" height="8.005" transform="translate(17.032 23.259) rotate(47.384)" fill="#fff" opacity="0.35"/>
                    </g>
                  </g>
                </g>
                <path id="Path_249" data-name="Path 249" d="M14.673,22.406v.216H12.637v4.73h-.2V22.406Z" fill="#1a2029" opacity="0.21"/>
              </g>
              <path id="Path_250" data-name="Path 250" d="M12.147,22.109V27.65h2.819V22.109Zm2.526,5.243H12.441V24.223h2.232Zm0-3.427H12.441V22.407h2.232Z" fill="#fff"/>
            </g>
          </g>
        </g>
        <g id="Group_223" data-name="Group 223">
          <g id="Group_153" data-name="Group 153">
            <rect id="Rectangle_152" data-name="Rectangle 152" width="14.193" height="24.891" transform="translate(16.112 13.828)" fill="#ff867b"/>
            <path id="Path_251" data-name="Path 251" d="M30.3,16.35V38.72H16.3Z" fill="#1a2029" opacity="0.07"/>
          </g>
          <g id="Group_157" data-name="Group 157">
            <rect id="Rectangle_153" data-name="Rectangle 153" width="15.159" height="0.593" transform="translate(15.629 38.126)" fill="#ef4d61"/>
            <g id="Group_156" data-name="Group 156">
              <g id="Group_154" data-name="Group 154">
                <rect id="Rectangle_154" data-name="Rectangle 154" width="14.193" height="0.489" transform="translate(16.112 31.557)" opacity="0.09"/>
                <rect id="Rectangle_155" data-name="Rectangle 155" width="15.159" height="0.593" transform="translate(15.629 29.898)" fill="#ef4d61"/>
                <path id="Path_252" data-name="Path 252" d="M31.4,31.684H15.014l.648-1.193H30.821Z" fill="#db3552"/>
                <rect id="Rectangle_156" data-name="Rectangle 156" width="14.193" height="0.146" transform="translate(16.143 29.409)" fill="#ef4d61"/>
              </g>
              <g id="Group_155" data-name="Group 155">
                <rect id="Rectangle_157" data-name="Rectangle 157" width="15.159" height="1.42" transform="translate(15.629 12.716)" fill="#ef4d61"/>
                <rect id="Rectangle_158" data-name="Rectangle 158" width="14.193" height="0.533" transform="translate(16.158 14.136)" fill="#ef4d61"/>
                <rect id="Rectangle_159" data-name="Rectangle 159" width="14.193" height="0.146" transform="translate(16.143 14.832)" fill="#ef4d61"/>
                <path id="Path_253" data-name="Path 253" d="M30.788,12.716H15.629l1.526-1.585H29.262Z" fill="#f27c96"/>
              </g>
            </g>
          </g>
          <g id="Group_165" data-name="Group 165" opacity="0.63">
            <g id="Group_158" data-name="Group 158">
              <rect id="Rectangle_160" data-name="Rectangle 160" width="0.538" height="0.303" rx="0.106" transform="translate(16.727 33.115)" fill="#ef4d61"/>
              <rect id="Rectangle_161" data-name="Rectangle 161" width="0.538" height="0.303" rx="0.106" transform="translate(17.1 33.476)" fill="#ef4d61"/>
              <rect id="Rectangle_162" data-name="Rectangle 162" width="0.538" height="0.303" rx="0.106" transform="translate(17.336 33.115)" fill="#ef4d61"/>
            </g>
            <g id="Group_159" data-name="Group 159">
              <rect id="Rectangle_163" data-name="Rectangle 163" width="0.538" height="0.303" rx="0.106" transform="translate(18.015 35.628)" fill="#ef4d61"/>
              <rect id="Rectangle_164" data-name="Rectangle 164" width="0.538" height="0.303" rx="0.106" transform="translate(18.388 35.989)" fill="#ef4d61"/>
              <rect id="Rectangle_165" data-name="Rectangle 165" width="0.538" height="0.303" rx="0.106" transform="translate(18.624 35.628)" fill="#ef4d61"/>
            </g>
            <g id="Group_160" data-name="Group 160">
              <rect id="Rectangle_166" data-name="Rectangle 166" width="0.538" height="0.303" rx="0.106" transform="translate(26.642 32.214)" fill="#ef4d61"/>
              <rect id="Rectangle_167" data-name="Rectangle 167" width="0.538" height="0.303" rx="0.106" transform="translate(27.016 32.576)" fill="#ef4d61"/>
              <rect id="Rectangle_168" data-name="Rectangle 168" width="0.538" height="0.303" rx="0.106" transform="translate(27.252 32.214)" fill="#ef4d61"/>
            </g>
            <g id="Group_161" data-name="Group 161">
              <rect id="Rectangle_169" data-name="Rectangle 169" width="0.538" height="0.303" rx="0.106" transform="translate(24.293 15.775)" fill="#ef4d61"/>
              <rect id="Rectangle_170" data-name="Rectangle 170" width="0.538" height="0.303" rx="0.106" transform="translate(24.666 16.137)" fill="#ef4d61"/>
              <rect id="Rectangle_171" data-name="Rectangle 171" width="0.538" height="0.303" rx="0.106" transform="translate(24.902 15.775)" fill="#ef4d61"/>
            </g>
            <g id="Group_162" data-name="Group 162">
              <rect id="Rectangle_172" data-name="Rectangle 172" width="0.538" height="0.303" rx="0.106" transform="translate(16.484 24.566)" fill="#ef4d61"/>
              <rect id="Rectangle_173" data-name="Rectangle 173" width="0.538" height="0.303" rx="0.106" transform="translate(16.858 24.928)" fill="#ef4d61"/>
              <rect id="Rectangle_174" data-name="Rectangle 174" width="0.538" height="0.303" rx="0.106" transform="translate(17.093 24.566)" fill="#ef4d61"/>
            </g>
            <g id="Group_163" data-name="Group 163">
              <rect id="Rectangle_175" data-name="Rectangle 175" width="0.538" height="0.303" rx="0.106" transform="translate(28.258 20.461)" fill="#ef4d61"/>
              <rect id="Rectangle_176" data-name="Rectangle 176" width="0.538" height="0.303" rx="0.106" transform="translate(28.631 20.823)" fill="#ef4d61"/>
              <rect id="Rectangle_177" data-name="Rectangle 177" width="0.538" height="0.303" rx="0.106" transform="translate(28.867 20.461)" fill="#ef4d61"/>
            </g>
            <g id="Group_164" data-name="Group 164">
              <rect id="Rectangle_178" data-name="Rectangle 178" width="0.538" height="0.303" rx="0.106" transform="translate(28.463 36.207)" fill="#ef4d61"/>
              <rect id="Rectangle_179" data-name="Rectangle 179" width="0.538" height="0.303" rx="0.106" transform="translate(28.836 36.569)" fill="#ef4d61"/>
              <rect id="Rectangle_180" data-name="Rectangle 180" width="0.538" height="0.303" rx="0.106" transform="translate(29.072 36.207)" fill="#ef4d61"/>
            </g>
          </g>
          <g id="Group_214" data-name="Group 214">
            <g id="Group_181" data-name="Group 181">
              <g id="Group_170" data-name="Group 170">
                <g id="Group_169" data-name="Group 169">
                  <g id="Group_166" data-name="Group 166">
                    <rect id="Rectangle_181" data-name="Rectangle 181" width="2.32" height="2.354" transform="translate(26.045 16.771)" fill="#badbed"/>
                    <path id="Path_254" data-name="Path 254" d="M28.364,18.5v.624h-2.32V16.771h.331l-.007.014a1.368,1.368,0,0,0,1.214,1.967,1.338,1.338,0,0,0,.741-.223C28.337,18.521,28.351,18.512,28.364,18.5Z" fill="#1a2029" opacity="0.13"/>
                  </g>
                  <g id="Group_168" data-name="Group 168">
                    <g id="Group_167" data-name="Group 167" clip-path="url(#clip-path-5)">
                      <rect id="Rectangle_182" data-name="Rectangle 182" width="0.144" height="7.527" transform="translate(28.963 16.161) rotate(47.384)" fill="#fff" opacity="0.35"/>
                      <rect id="Rectangle_183" data-name="Rectangle 183" width="0.635" height="7.527" transform="translate(24.69 21.549) rotate(-132.616)" fill="#fff" opacity="0.35"/>
                      <rect id="Rectangle_184" data-name="Rectangle 184" width="0.229" height="7.527" transform="translate(29.056 15.315) rotate(47.384)" fill="#fff" opacity="0.35"/>
                    </g>
                  </g>
                  <path id="Path_255" data-name="Path 255" d="M28.364,16.771v.2H26.248v2.158h-.2V16.771Z" fill="#1a2029" opacity="0.21"/>
                </g>
                <path id="Path_256" data-name="Path 256" d="M25.768,16.491v2.914H28.64V16.491Zm1.574.28h1.022v1.037H27.342Zm-.276,2.354H26.044V18.088h1.022Zm0-1.317H26.044V16.771h1.022Zm1.3,1.317H27.342V18.088h1.022Z" fill="#fff"/>
              </g>
              <g id="Group_175" data-name="Group 175">
                <g id="Group_174" data-name="Group 174">
                  <g id="Group_171" data-name="Group 171">
                    <rect id="Rectangle_186" data-name="Rectangle 186" width="2.32" height="2.354" transform="translate(22.025 16.771)" fill="#badbed"/>
                    <path id="Path_257" data-name="Path 257" d="M24.345,18.5v.624h-2.32V16.771h.331l-.007.014a1.368,1.368,0,0,0,1.214,1.967,1.338,1.338,0,0,0,.741-.223C24.318,18.521,24.332,18.512,24.345,18.5Z" fill="#1a2029" opacity="0.13"/>
                  </g>
                  <g id="Group_173" data-name="Group 173">
                    <g id="Group_172" data-name="Group 172" clip-path="url(#clip-path-6)">
                      <rect id="Rectangle_187" data-name="Rectangle 187" width="0.144" height="7.527" transform="translate(24.943 16.161) rotate(47.384)" fill="#fff" opacity="0.35"/>
                      <rect id="Rectangle_188" data-name="Rectangle 188" width="0.635" height="7.527" transform="translate(20.671 21.549) rotate(-132.616)" fill="#fff" opacity="0.35"/>
                      <rect id="Rectangle_189" data-name="Rectangle 189" width="0.229" height="7.527" transform="translate(25.037 15.315) rotate(47.384)" fill="#fff" opacity="0.35"/>
                    </g>
                  </g>
                  <path id="Path_258" data-name="Path 258" d="M24.345,16.771v.2H22.229v2.158h-.2V16.771Z" fill="#1a2029" opacity="0.21"/>
                </g>
                <path id="Path_259" data-name="Path 259" d="M21.749,16.491v2.914h2.872V16.491Zm1.574.28h1.022v1.037H23.323Zm-.276,2.354H22.025V18.088h1.022Zm0-1.317H22.025V16.771h1.022Zm1.3,1.317H23.323V18.088h1.022Z" fill="#fff"/>
              </g>
              <g id="Group_180" data-name="Group 180">
                <g id="Group_179" data-name="Group 179">
                  <g id="Group_176" data-name="Group 176">
                    <rect id="Rectangle_191" data-name="Rectangle 191" width="2.32" height="2.354" transform="translate(18.053 16.771)" fill="#badbed"/>
                    <path id="Path_260" data-name="Path 260" d="M20.373,18.5v.624h-2.32V16.771h.331a.147.147,0,0,0-.007.014,1.368,1.368,0,0,0,1.214,1.967,1.337,1.337,0,0,0,.741-.223C20.345,18.521,20.359,18.512,20.373,18.5Z" fill="#1a2029" opacity="0.13"/>
                  </g>
                  <g id="Group_178" data-name="Group 178">
                    <g id="Group_177" data-name="Group 177" clip-path="url(#clip-path-7)">
                      <rect id="Rectangle_192" data-name="Rectangle 192" width="0.144" height="7.527" transform="translate(20.971 16.161) rotate(47.384)" fill="#fff" opacity="0.35"/>
                      <rect id="Rectangle_193" data-name="Rectangle 193" width="0.635" height="7.527" transform="translate(16.698 21.549) rotate(-132.616)" fill="#fff" opacity="0.35"/>
                      <rect id="Rectangle_194" data-name="Rectangle 194" width="0.229" height="7.527" transform="translate(21.064 15.315) rotate(47.384)" fill="#fff" opacity="0.35"/>
                    </g>
                  </g>
                  <path id="Path_261" data-name="Path 261" d="M20.373,16.771v.2H18.257v2.158h-.2V16.771Z" fill="#1a2029" opacity="0.21"/>
                </g>
                <path id="Path_262" data-name="Path 262" d="M17.777,16.491v2.914h2.872V16.491Zm1.574.28h1.022v1.037H19.351Zm-.276,2.354H18.053V18.088h1.022Zm0-1.317H18.053V16.771h1.022Zm1.3,1.317H19.351V18.088h1.022Z" fill="#fff"/>
              </g>
            </g>
            <g id="Group_197" data-name="Group 197">
              <g id="Group_186" data-name="Group 186">
                <g id="Group_185" data-name="Group 185">
                  <g id="Group_182" data-name="Group 182">
                    <rect id="Rectangle_196" data-name="Rectangle 196" width="2.32" height="2.354" transform="translate(26.045 21.014)" fill="#badbed"/>
                    <path id="Path_263" data-name="Path 263" d="M28.364,22.743v.624h-2.32V21.014h.331l-.007.014A1.368,1.368,0,0,0,27.583,23a1.339,1.339,0,0,0,.741-.223C28.337,22.764,28.351,22.754,28.364,22.743Z" fill="#1a2029" opacity="0.13"/>
                  </g>
                  <g id="Group_184" data-name="Group 184">
                    <g id="Group_183" data-name="Group 183" clip-path="url(#clip-path-8)">
                      <rect id="Rectangle_197" data-name="Rectangle 197" width="0.144" height="7.527" transform="translate(28.963 20.404) rotate(47.384)" fill="#fff" opacity="0.35"/>
                      <rect id="Rectangle_198" data-name="Rectangle 198" width="0.635" height="7.527" transform="translate(24.69 25.791) rotate(-132.616)" fill="#fff" opacity="0.35"/>
                      <rect id="Rectangle_199" data-name="Rectangle 199" width="0.229" height="7.527" transform="translate(29.056 19.557) rotate(47.384)" fill="#fff" opacity="0.35"/>
                    </g>
                  </g>
                  <path id="Path_264" data-name="Path 264" d="M28.364,21.014v.2H26.248v2.158h-.2V21.014Z" fill="#1a2029" opacity="0.21"/>
                </g>
                <path id="Path_265" data-name="Path 265" d="M25.768,20.734v2.914H28.64V20.734Zm1.574.28h1.022v1.037H27.342Zm-.276,2.354H26.044V22.331h1.022Zm0-1.317H26.044V21.014h1.022Zm1.3,1.317H27.342V22.331h1.022Z" fill="#fff"/>
              </g>
              <g id="Group_191" data-name="Group 191">
                <g id="Group_190" data-name="Group 190">
                  <g id="Group_187" data-name="Group 187">
                    <rect id="Rectangle_201" data-name="Rectangle 201" width="2.32" height="2.354" transform="translate(22.025 21.014)" fill="#badbed"/>
                    <path id="Path_266" data-name="Path 266" d="M24.345,22.743v.624h-2.32V21.014h.331l-.007.014A1.368,1.368,0,0,0,23.564,23a1.339,1.339,0,0,0,.741-.223C24.318,22.764,24.332,22.754,24.345,22.743Z" fill="#1a2029" opacity="0.13"/>
                  </g>
                  <g id="Group_189" data-name="Group 189">
                    <g id="Group_188" data-name="Group 188" clip-path="url(#clip-path-9)">
                      <rect id="Rectangle_202" data-name="Rectangle 202" width="0.144" height="7.527" transform="translate(24.943 20.404) rotate(47.384)" fill="#fff" opacity="0.35"/>
                      <rect id="Rectangle_203" data-name="Rectangle 203" width="0.635" height="7.527" transform="translate(20.671 25.791) rotate(-132.616)" fill="#fff" opacity="0.35"/>
                      <rect id="Rectangle_204" data-name="Rectangle 204" width="0.229" height="7.527" transform="translate(25.037 19.557) rotate(47.384)" fill="#fff" opacity="0.35"/>
                    </g>
                  </g>
                  <path id="Path_267" data-name="Path 267" d="M24.345,21.014v.2H22.229v2.158h-.2V21.014Z" fill="#1a2029" opacity="0.21"/>
                </g>
                <path id="Path_268" data-name="Path 268" d="M21.749,20.734v2.914h2.872V20.734Zm1.574.28h1.022v1.037H23.323Zm-.276,2.354H22.025V22.331h1.022Zm0-1.317H22.025V21.014h1.022Zm1.3,1.317H23.323V22.331h1.022Z" fill="#fff"/>
              </g>
              <g id="Group_196" data-name="Group 196">
                <g id="Group_195" data-name="Group 195">
                  <g id="Group_192" data-name="Group 192">
                    <rect id="Rectangle_206" data-name="Rectangle 206" width="2.32" height="2.354" transform="translate(18.053 21.014)" fill="#badbed"/>
                    <path id="Path_269" data-name="Path 269" d="M20.373,22.743v.624h-2.32V21.014h.331a.147.147,0,0,0-.007.014A1.368,1.368,0,0,0,19.591,23a1.338,1.338,0,0,0,.741-.223C20.345,22.764,20.359,22.754,20.373,22.743Z" fill="#1a2029" opacity="0.13"/>
                  </g>
                  <g id="Group_194" data-name="Group 194">
                    <g id="Group_193" data-name="Group 193" clip-path="url(#clip-path-10)">
                      <rect id="Rectangle_207" data-name="Rectangle 207" width="0.144" height="7.527" transform="translate(20.971 20.404) rotate(47.384)" fill="#fff" opacity="0.35"/>
                      <rect id="Rectangle_208" data-name="Rectangle 208" width="0.635" height="7.527" transform="translate(16.698 25.791) rotate(-132.616)" fill="#fff" opacity="0.35"/>
                      <rect id="Rectangle_209" data-name="Rectangle 209" width="0.229" height="7.527" transform="translate(21.064 19.557) rotate(47.384)" fill="#fff" opacity="0.35"/>
                    </g>
                  </g>
                  <path id="Path_270" data-name="Path 270" d="M20.373,21.014v.2H18.257v2.158h-.2V21.014Z" fill="#1a2029" opacity="0.21"/>
                </g>
                <path id="Path_271" data-name="Path 271" d="M17.777,20.734v2.914h2.872V20.734Zm1.574.28h1.022v1.037H19.351Zm-.276,2.354H18.053V22.331h1.022Zm0-1.317H18.053V21.014h1.022Zm1.3,1.317H19.351V22.331h1.022Z" fill="#fff"/>
              </g>
            </g>
            <g id="Group_213" data-name="Group 213">
              <g id="Group_202" data-name="Group 202">
                <g id="Group_201" data-name="Group 201">
                  <g id="Group_198" data-name="Group 198">
                    <rect id="Rectangle_211" data-name="Rectangle 211" width="2.32" height="2.354" transform="translate(26.045 25.007)" fill="#badbed"/>
                    <path id="Path_272" data-name="Path 272" d="M28.364,26.736v.624h-2.32V25.007h.331a.157.157,0,0,0-.007.014,1.368,1.368,0,0,0,1.214,1.967,1.338,1.338,0,0,0,.741-.223A.5.5,0,0,0,28.364,26.736Z" fill="#1a2029" opacity="0.13"/>
                  </g>
                  <g id="Group_200" data-name="Group 200">
                    <g id="Group_199" data-name="Group 199" clip-path="url(#clip-path-11)">
                      <rect id="Rectangle_212" data-name="Rectangle 212" width="0.144" height="7.527" transform="translate(28.963 24.396) rotate(47.384)" fill="#fff" opacity="0.35"/>
                      <rect id="Rectangle_213" data-name="Rectangle 213" width="0.635" height="7.527" transform="translate(24.69 29.784) rotate(-132.616)" fill="#fff" opacity="0.35"/>
                      <rect id="Rectangle_214" data-name="Rectangle 214" width="0.229" height="7.527" transform="translate(29.056 23.55) rotate(47.384)" fill="#fff" opacity="0.35"/>
                    </g>
                  </g>
                  <path id="Path_273" data-name="Path 273" d="M28.364,25.007v.2H26.248v2.158h-.2V25.007Z" fill="#1a2029" opacity="0.21"/>
                </g>
                <path id="Path_274" data-name="Path 274" d="M25.768,24.726v2.914H28.64V24.726Zm1.574.28h1.022v1.037H27.342Zm-.276,2.354H26.044V26.324h1.022Zm0-1.317H26.044V25.007h1.022Zm1.3,1.317H27.342V26.324h1.022Z" fill="#fff"/>
              </g>
              <g id="Group_207" data-name="Group 207">
                <g id="Group_206" data-name="Group 206">
                  <g id="Group_203" data-name="Group 203">
                    <rect id="Rectangle_216" data-name="Rectangle 216" width="2.32" height="2.354" transform="translate(22.025 25.007)" fill="#badbed"/>
                    <path id="Path_275" data-name="Path 275" d="M24.345,26.736v.624h-2.32V25.007h.331l-.007.014a1.368,1.368,0,0,0,1.214,1.967,1.338,1.338,0,0,0,.741-.223A.482.482,0,0,0,24.345,26.736Z" fill="#1a2029" opacity="0.13"/>
                  </g>
                  <g id="Group_205" data-name="Group 205">
                    <g id="Group_204" data-name="Group 204" clip-path="url(#clip-path-12)">
                      <rect id="Rectangle_217" data-name="Rectangle 217" width="0.144" height="7.527" transform="translate(24.943 24.396) rotate(47.384)" fill="#fff" opacity="0.35"/>
                      <rect id="Rectangle_218" data-name="Rectangle 218" width="0.635" height="7.527" transform="translate(20.671 29.784) rotate(-132.616)" fill="#fff" opacity="0.35"/>
                      <rect id="Rectangle_219" data-name="Rectangle 219" width="0.229" height="7.527" transform="translate(25.037 23.55) rotate(47.384)" fill="#fff" opacity="0.35"/>
                    </g>
                  </g>
                  <path id="Path_276" data-name="Path 276" d="M24.345,25.007v.2H22.229v2.158h-.2V25.007Z" fill="#1a2029" opacity="0.21"/>
                </g>
                <path id="Path_277" data-name="Path 277" d="M21.749,24.726v2.914h2.872V24.726Zm1.574.28h1.022v1.037H23.323Zm-.276,2.354H22.025V26.324h1.022Zm0-1.317H22.025V25.007h1.022Zm1.3,1.317H23.323V26.324h1.022Z" fill="#fff"/>
              </g>
              <g id="Group_212" data-name="Group 212">
                <g id="Group_211" data-name="Group 211">
                  <g id="Group_208" data-name="Group 208">
                    <rect id="Rectangle_221" data-name="Rectangle 221" width="2.32" height="2.354" transform="translate(18.053 25.007)" fill="#badbed"/>
                    <path id="Path_278" data-name="Path 278" d="M20.373,26.736v.624h-2.32V25.007h.331a.136.136,0,0,0-.007.014,1.368,1.368,0,0,0,1.214,1.967,1.337,1.337,0,0,0,.741-.223A.484.484,0,0,0,20.373,26.736Z" fill="#1a2029" opacity="0.13"/>
                  </g>
                  <g id="Group_210" data-name="Group 210">
                    <g id="Group_209" data-name="Group 209" clip-path="url(#clip-path-13)">
                      <rect id="Rectangle_222" data-name="Rectangle 222" width="0.144" height="7.527" transform="translate(20.971 24.396) rotate(47.384)" fill="#fff" opacity="0.35"/>
                      <rect id="Rectangle_223" data-name="Rectangle 223" width="0.635" height="7.527" transform="translate(16.698 29.784) rotate(-132.616)" fill="#fff" opacity="0.35"/>
                      <rect id="Rectangle_224" data-name="Rectangle 224" width="0.229" height="7.527" transform="translate(21.064 23.55) rotate(47.384)" fill="#fff" opacity="0.35"/>
                    </g>
                  </g>
                  <path id="Path_279" data-name="Path 279" d="M20.373,25.007v.2H18.257v2.158h-.2V25.007Z" fill="#1a2029" opacity="0.21"/>
                </g>
                <path id="Path_280" data-name="Path 280" d="M17.777,24.726v2.914h2.872V24.726Zm1.574.28h1.022v1.037H19.351Zm-.276,2.354H18.053V26.324h1.022Zm0-1.317H18.053V25.007h1.022Zm1.3,1.317H19.351V26.324h1.022Z" fill="#fff"/>
              </g>
            </g>
          </g>
          <g id="Group_219" data-name="Group 219">
            <g id="Group_218" data-name="Group 218">
              <g id="Group_217" data-name="Group 217">
                <rect id="Rectangle_226" data-name="Rectangle 226" width="5.284" height="6.219" transform="matrix(0, 1, -1, 0, 26.433, 33.138)" fill="#badbed"/>
                <path id="Path_281" data-name="Path 281" d="M26.433,37.675v.747H20.214V33.138h.656a3.317,3.317,0,0,0-.392,1.564,3.709,3.709,0,0,0,3.847,3.554A4.06,4.06,0,0,0,26.433,37.675Z" fill="#1a2029" opacity="0.13"/>
                <g id="Group_216" data-name="Group 216" opacity="0.57">
                  <g id="Group_215" data-name="Group 215" clip-path="url(#clip-path-14)">
                    <rect id="Rectangle_227" data-name="Rectangle 227" width="0.588" height="8.005" transform="translate(26.598 33.138) rotate(47.384)" fill="#fff" opacity="0.35"/>
                    <rect id="Rectangle_228" data-name="Rectangle 228" width="0.306" height="8.005" transform="translate(25.746 32.58) rotate(47.384)" fill="#fff" opacity="0.35"/>
                    <rect id="Rectangle_229" data-name="Rectangle 229" width="0.306" height="8.005" transform="translate(27.513 34.53) rotate(47.384)" fill="#fff" opacity="0.35"/>
                    <rect id="Rectangle_230" data-name="Rectangle 230" width="0.153" height="8.005" transform="translate(24.871 32.637) rotate(47.384)" fill="#fff" opacity="0.35"/>
                    <rect id="Rectangle_231" data-name="Rectangle 231" width="1.039" height="8.005" transform="translate(23.822 31.215) rotate(47.384)" fill="#fff" opacity="0.35"/>
                  </g>
                </g>
              </g>
              <path id="Path_282" data-name="Path 282" d="M26.433,33.356H23.664l0,.131h0v4.934h-.2V33.356H20.431v5.065h-.217V33.138h6.219Z" fill="#1a2029" opacity="0.41"/>
            </g>
            <path id="Path_283" data-name="Path 283" d="M19.92,32.84v5.88h6.806V32.84Zm.294,5.582V33.138h2.962v5.284Zm6.219,0H23.47V33.138h2.963Z" fill="#fff"/>
          </g>
          <g id="Group_222" data-name="Group 222">
            <g id="Group_220" data-name="Group 220">
              <rect id="Rectangle_233" data-name="Rectangle 233" width="7.205" height="0.811" transform="translate(19.721 37.958)" fill="#fff"/>
              <rect id="Rectangle_234" data-name="Rectangle 234" width="7.205" height="0.202" transform="translate(19.721 38.51)" fill="#1a2029" opacity="0.15"/>
            </g>
            <g id="Group_221" data-name="Group 221">
              <rect id="Rectangle_235" data-name="Rectangle 235" width="8.354" height="0.985" transform="translate(19.146 38.712)" fill="#fff"/>
              <rect id="Rectangle_236" data-name="Rectangle 236" width="8.354" height="0.384" transform="translate(19.146 39.313)" fill="#1a2029" opacity="0.15"/>
            </g>
          </g>
        </g>
      </g>
      <g id="Group_225" data-name="Group 225">
        <path id="Path_284" data-name="Path 284" d="M38.047,38.795H30.884a1.435,1.435,0,0,1-.023-.88.869.869,0,0,1,1.316-.554,1.389,1.389,0,0,1,.363-1.24.775.775,0,0,1,1.035-.02c.06.051.122.115.195.114.089,0,.158-.1.222-.176a.773.773,0,0,1,1.341.084c.039.089.071.2.142.241a.253.253,0,0,0,.207,0,1.135,1.135,0,0,1,1.027.09,2.072,2.072,0,0,1,.533,1.465.345.345,0,0,0,.08.244.226.226,0,0,0,.117.033A.806.806,0,0,1,38.047,38.795Z" fill="#8baa3d"/>
        <path id="Path_285" data-name="Path 285" d="M15.757,38.93H8.134a1.592,1.592,0,0,1-.024-.957.92.92,0,0,1,1.4-.6A1.53,1.53,0,0,1,9.9,36.023.812.812,0,0,1,11,36c.064.056.13.125.207.124.1,0,.168-.105.236-.192a.814.814,0,0,1,1.427.092c.042.1.075.212.152.262a.264.264,0,0,0,.22,0,1.186,1.186,0,0,1,1.093.1,2.28,2.28,0,0,1,.568,1.592.381.381,0,0,0,.085.265.238.238,0,0,0,.125.036A.866.866,0,0,1,15.757,38.93Z" fill="#8baa3d"/>
      </g>
      <g id="Group_232" data-name="Group 232">
        <g id="Group_228" data-name="Group 228">
          <rect id="Rectangle_237" data-name="Rectangle 237" width="0.289" height="1.778" transform="translate(17.536 37.079)" fill="#5e1726"/>
          <g id="Group_226" data-name="Group 226">
            <ellipse id="Ellipse_15" data-name="Ellipse 15" cx="1.292" cy="1.311" rx="1.292" ry="1.311" transform="translate(16.353 34.655)" fill="#8baa3d"/>
            <path id="Path_286" data-name="Path 286" d="M18.919,35.966a1.29,1.29,0,0,1-2.549.306,1.273,1.273,0,0,0,.843.318,1.3,1.3,0,0,0,1.292-1.311,1.332,1.332,0,0,0-.035-.306A1.315,1.315,0,0,1,18.919,35.966Z" fill="#1a2029" opacity="0.09"/>
          </g>
          <g id="Group_227" data-name="Group 227">
            <rect id="Rectangle_238" data-name="Rectangle 238" width="0.91" height="0.903" transform="translate(17.226 38.427)" fill="#db3552"/>
            <rect id="Rectangle_239" data-name="Rectangle 239" width="1.167" height="0.26" transform="translate(17.097 38.297)" fill="#db3552"/>
            <path id="Path_287" data-name="Path 287" d="M18.136,38.539v.791h-.91V39.1a.512.512,0,0,0,.29.092A.706.706,0,0,0,18.136,38.539Z" fill="#1a2029" opacity="0.09"/>
          </g>
        </g>
        <g id="Group_231" data-name="Group 231">
          <rect id="Rectangle_240" data-name="Rectangle 240" width="0.289" height="1.778" transform="translate(28.663 37.079)" fill="#5e1726"/>
          <g id="Group_229" data-name="Group 229">
            <ellipse id="Ellipse_16" data-name="Ellipse 16" cx="1.292" cy="1.311" rx="1.292" ry="1.311" transform="translate(27.48 34.655)" fill="#8baa3d"/>
            <path id="Path_288" data-name="Path 288" d="M30.046,35.966a1.29,1.29,0,0,1-2.549.306,1.274,1.274,0,0,0,.843.318,1.3,1.3,0,0,0,1.292-1.311,1.332,1.332,0,0,0-.035-.306A1.315,1.315,0,0,1,30.046,35.966Z" fill="#1a2029" opacity="0.09"/>
          </g>
          <g id="Group_230" data-name="Group 230">
            <rect id="Rectangle_241" data-name="Rectangle 241" width="0.91" height="0.903" transform="translate(28.352 38.427)" fill="#db3552"/>
            <rect id="Rectangle_242" data-name="Rectangle 242" width="1.167" height="0.26" transform="translate(28.224 38.297)" fill="#db3552"/>
            <path id="Path_289" data-name="Path 289" d="M29.263,38.539v.791h-.91V39.1a.513.513,0,0,0,.29.092A.706.706,0,0,0,29.263,38.539Z" fill="#1a2029" opacity="0.09"/>
          </g>
        </g>
      </g>
    </g>
  </g>
</svg>
