<svg id="menu" xmlns="http://www.w3.org/2000/svg" width="25" height="25" viewBox="0 0 25 25">
  <path id="Path_626" data-name="Path 626" d="M9.25,0H1.75A1.752,1.752,0,0,0,0,1.75v4.5A1.752,1.752,0,0,0,1.75,8h7.5A1.752,1.752,0,0,0,11,6.25V1.75A1.752,1.752,0,0,0,9.25,0Z" fill="#fff"/>
  <path id="Path_627" data-name="Path 627" d="M9.25,10H1.75A1.752,1.752,0,0,0,0,11.75v10.5A1.752,1.752,0,0,0,1.75,24h7.5A1.752,1.752,0,0,0,11,22.25V11.75A1.752,1.752,0,0,0,9.25,10Z" transform="translate(0 1)" fill="#fff"/>
  <path id="Path_628" data-name="Path 628" d="M22.25,16h-7.5A1.752,1.752,0,0,0,13,17.75v4.5A1.752,1.752,0,0,0,14.75,24h7.5A1.752,1.752,0,0,0,24,22.25v-4.5A1.752,1.752,0,0,0,22.25,16Z" transform="translate(1 1)" fill="#fff"/>
  <path id="Path_629" data-name="Path 629" d="M22.25,0h-7.5A1.752,1.752,0,0,0,13,1.75v10.5A1.752,1.752,0,0,0,14.75,14h7.5A1.752,1.752,0,0,0,24,12.25V1.75A1.752,1.752,0,0,0,22.25,0Z" transform="translate(1)" fill="#fff"/>
</svg>
