<svg xmlns="http://www.w3.org/2000/svg" xmlns:xlink="http://www.w3.org/1999/xlink" width="17.996" height="18.995" viewBox="0 0 17.996 18.995">
  <defs>
    <linearGradient id="linear-gradient" y1="0.5" x2="1" y2="0.5" gradientUnits="objectBoundingBox">
      <stop offset="0" stop-color="#fe867b"/>
      <stop offset="1" stop-color="#b6335f"/>
    </linearGradient>
  </defs>
  <path id="Forma_1" data-name="Forma 1" d="M41.4,771.989a.656.656,0,0,1-.679-.8v-4.96A1.616,1.616,0,0,0,40,764.945c-2.04,0-2-2.3-2-2.3V759.9a2.118,2.118,0,0,1,2.083-2.083h2.634a.64.64,0,0,1,.723.753L43.4,764.9a3.718,3.718,0,0,1-.68,1.463,1.305,1.305,0,0,1-.029,1.779,1.338,1.338,0,0,1-.1,1.823c.895,1.828-.281,2.041-.879,2.041A2.257,2.257,0,0,1,41.4,771.989ZM38.442,759.9v2.89a.605.605,0,0,0,1.211,0V759.9a.605.605,0,0,0-1.211,0Zm15.827,9s-2.409-4.422-9.481-4.422c0,0-.667,0-.667-.63v-5.466s-.119-.63.628-.63c0,0,6.324.378,9.39-4.333,0,0,.649-.841.649-.083v5.786a2.236,2.236,0,0,1,0,3.973v5.775c.013.245-.044.325-.124.325C54.51,769.189,54.269,768.893,54.269,768.893Z" transform="translate(-38.002 -753.013)" fill="url(#linear-gradient)"/>
</svg>
