<svg xmlns="http://www.w3.org/2000/svg" width="18.151" height="21.756" viewBox="0 0 18.151 21.756">
  <g id="user_5_" data-name="user (5)" transform="translate(0 0)">
    <path id="Path_624" data-name="Path 624" d="M92.272,10.48a5.07,5.07,0,0,0,3.705-1.535,5.07,5.07,0,0,0,1.535-3.7,5.071,5.071,0,0,0-1.535-3.7,5.239,5.239,0,0,0-7.41,0,5.07,5.07,0,0,0-1.535,3.7,5.07,5.07,0,0,0,1.535,3.705,5.071,5.071,0,0,0,3.7,1.535Zm0,0" transform="translate(-83.334)" fill="#8e8e8e"/>
    <path id="Path_625" data-name="Path 625" d="M18.107,253.536a12.942,12.942,0,0,0-.176-1.375,10.831,10.831,0,0,0-.338-1.382,6.827,6.827,0,0,0-.568-1.289,4.864,4.864,0,0,0-.857-1.117,3.778,3.778,0,0,0-1.231-.773,4.253,4.253,0,0,0-1.571-.284,1.6,1.6,0,0,0-.852.361c-.255.166-.554.359-.887.572a5.084,5.084,0,0,1-1.148.506,4.458,4.458,0,0,1-2.808,0,5.071,5.071,0,0,1-1.147-.506c-.33-.211-.629-.4-.888-.572a1.592,1.592,0,0,0-.851-.361,4.248,4.248,0,0,0-1.571.285,3.774,3.774,0,0,0-1.231.773,4.865,4.865,0,0,0-.856,1.116,6.84,6.84,0,0,0-.568,1.289,10.856,10.856,0,0,0-.338,1.382,12.9,12.9,0,0,0-.176,1.375c-.029.416-.043.848-.043,1.285a3.613,3.613,0,0,0,1.073,2.733,3.862,3.862,0,0,0,2.765,1.009H14.313a3.861,3.861,0,0,0,2.765-1.009,3.611,3.611,0,0,0,1.073-2.733c0-.438-.015-.871-.044-1.285Zm0,0" transform="translate(0 -236.807)" fill="#8e8e8e"/>
  </g>
</svg>
