<svg xmlns="http://www.w3.org/2000/svg" width="11.996" height="19.005" viewBox="0 0 11.996 19.005">
  <path id="Forma_1" data-name="Forma 1" d="M384.878,906.3a.414.414,0,0,0-.307-.121h-2.284a4.7,4.7,0,0,0-.855-1.944h3.112a.415.415,0,0,0,.307-.121.425.425,0,0,0,.12-.31V902.43a.424.424,0,0,0-.12-.31.415.415,0,0,0-.307-.121H373.429a.414.414,0,0,0-.307.121.423.423,0,0,0-.12.31v1.8a.417.417,0,0,0,.127.3.408.408,0,0,0,.3.128h1.937q2.818,0,3.58,1.525h-5.517a.414.414,0,0,0-.307.121.423.423,0,0,0-.12.31v1.377a.422.422,0,0,0,.12.31.414.414,0,0,0,.307.121h5.7a2.632,2.632,0,0,1-1.369,1.687,5.975,5.975,0,0,1-2.839.581h-1.5a.409.409,0,0,0-.3.128.417.417,0,0,0-.127.3v1.714a.406.406,0,0,0,.12.3q2.565,2.754,6.652,7.707a.393.393,0,0,0,.334.162h2.6a.388.388,0,0,0,.388-.243.372.372,0,0,0-.054-.459q-3.9-4.832-6.132-7.235a6.737,6.737,0,0,0,3.687-1.485,5.06,5.06,0,0,0,1.723-3.159h2.244a.413.413,0,0,0,.307-.121.422.422,0,0,0,.12-.31v-1.377A.423.423,0,0,0,384.878,906.3Z" transform="translate(-373.002 -901.998)" fill="#8e8e8e"/>
</svg>
