<svg xmlns="http://www.w3.org/2000/svg" xmlns:xlink="http://www.w3.org/1999/xlink" width="10.996" height="17.004" viewBox="0 0 10.996 17.004">
  <defs>
    <linearGradient id="linear-gradient" y1="0.5" x2="1" y2="0.5" gradientUnits="objectBoundingBox">
      <stop offset="0" stop-color="#fe867b"/>
      <stop offset="1" stop-color="#b6335f"/>
    </linearGradient>
  </defs>
  <path id="Forma_1" data-name="Forma 1" d="M49.888,695.85a.384.384,0,0,0-.282-.109H47.512A4.151,4.151,0,0,0,46.729,694h2.853a.385.385,0,0,0,.282-.109.375.375,0,0,0,.11-.278v-1.232a.374.374,0,0,0-.11-.278.385.385,0,0,0-.282-.109H39.394a.385.385,0,0,0-.282.109.374.374,0,0,0-.11.278v1.606a.369.369,0,0,0,.116.272.379.379,0,0,0,.276.115h1.776q2.584,0,3.282,1.365H39.394a.384.384,0,0,0-.282.109.374.374,0,0,0-.11.278v1.232a.372.372,0,0,0,.11.278.384.384,0,0,0,.282.109h5.229a2.367,2.367,0,0,1-1.255,1.51,5.592,5.592,0,0,1-2.6.519H39.394a.379.379,0,0,0-.276.115.369.369,0,0,0-.116.272V701.7a.358.358,0,0,0,.11.266q2.351,2.464,6.1,6.9a.363.363,0,0,0,.306.145H47.9a.356.356,0,0,0,.355-.217.327.327,0,0,0-.049-.411q-3.575-4.323-5.621-6.473a6.26,6.26,0,0,0,3.38-1.328,4.5,4.5,0,0,0,1.58-2.826h2.057a.383.383,0,0,0,.282-.109.373.373,0,0,0,.11-.278v-1.232A.373.373,0,0,0,49.888,695.85Z" transform="translate(-39.002 -691.998)" fill="url(#linear-gradient)"/>
</svg>
