<svg xmlns="http://www.w3.org/2000/svg" xmlns:xlink="http://www.w3.org/1999/xlink" width="19" height="19" viewBox="0 0 19 19">
  <defs>
    <linearGradient id="linear-gradient" y1="0.5" x2="1" y2="0.5" gradientUnits="objectBoundingBox">
      <stop offset="0" stop-color="#fe867b"/>
      <stop offset="1" stop-color="#b6335f"/>
    </linearGradient>
  </defs>
  <g id="diagram" transform="translate(0 -0.003)">
    <path id="Path_620" data-name="Path 620" d="M18.443,182.547H17.85V171.563a.557.557,0,0,0-.557-.557H15.066a.557.557,0,0,0-.557.557v10.984H13.4v-7.273a.557.557,0,0,0-.557-.557H10.613a.557.557,0,0,0-.557.557v7.273H8.943v-5.232a.557.557,0,0,0-.557-.557H6.16a.557.557,0,0,0-.557.557v5.232H4.49v-3.9a.557.557,0,0,0-.557-.557H1.707a.557.557,0,0,0-.557.557v3.9H.557a.557.557,0,0,0,0,1.113H18.443a.557.557,0,1,0,0-1.113Z" transform="translate(0 -164.657)" fill="url(#linear-gradient)"/>
    <path id="Path_621" data-name="Path 621" d="M.557,11.963A19.435,19.435,0,0,0,11.165,8.45a20.566,20.566,0,0,0,6.2-6.362l.541,2.018a.6.6,0,0,0,.682.394.551.551,0,0,0,.394-.682l-.912-3.4a.557.557,0,0,0-.682-.394l-3.4.912a.557.557,0,0,0,.288,1.075l2.191-.587a19.324,19.324,0,0,1-5.922,6.1A18.316,18.316,0,0,1,.557,10.85a.557.557,0,1,0,0,1.113Z" transform="translate(0 0)" fill="url(#linear-gradient)"/>
  </g>
</svg>
